<svg version="1.1" id="Layer_1" xmlns="http://www.w3.org/2000/svg" xmlns:xlink="http://www.w3.org/1999/xlink" x="0px" y="0px"
	 width="100%" viewBox="0 0 622 649" enable-background="new 0 0 622 649" xml:space="preserve">
<path fill="#000000" opacity="0.000000" stroke="none" 
	d="
M368.000000,650.000000 
	C245.333374,650.000000 123.166756,650.000000 1.000098,650.000000 
	C1.000066,433.666779 1.000066,217.333572 1.000033,1.000273 
	C208.333130,1.000182 415.666260,1.000182 622.999512,1.000091 
	C622.999695,217.333069 622.999695,433.666138 622.999878,649.999634 
	C538.166687,650.000000 453.333344,650.000000 368.000000,650.000000 
M288.971558,153.031219 
	C288.971558,153.031219 288.905365,153.060455 289.187439,153.683273 
	C289.890503,154.390335 290.521362,155.192352 291.307343,155.790451 
	C306.619843,167.442551 323.757111,171.233200 342.692932,168.144424 
	C363.036682,164.825974 377.488892,153.475449 388.066742,136.296539 
	C388.888428,134.962067 391.521515,134.084808 393.303192,134.100082 
	C413.897064,134.276733 434.488739,134.691376 455.081848,134.985504 
	C461.578156,135.078278 468.077148,134.972000 474.574432,135.021469 
	C476.042480,135.032654 477.580627,135.079132 478.964539,135.505402 
	C498.974548,141.668884 518.963745,147.899994 538.992920,154.962692 
	C535.683960,183.962173 532.375000,212.961670 529.093872,241.717773 
	C512.218689,241.717773 496.297394,241.717773 479.999115,241.717773 
	C479.999115,237.977417 480.096039,234.511002 479.979675,231.051758 
	C479.703583,222.841965 475.231415,218.842880 466.650146,219.000183 
	C460.059174,219.121002 457.000244,222.924805 457.000214,231.005997 
	C456.999847,311.939362 457.000000,392.872742 457.000000,473.806122 
	C457.000000,475.746429 457.000000,477.686737 457.000000,479.996002 
	C433.154785,479.996002 409.875366,480.026611 386.597198,479.871582 
	C385.762878,479.866028 384.940735,478.027893 384.750824,476.670135 
	C385.111664,474.780151 385.472504,472.890167 385.976135,470.355591 
	C386.021729,469.918335 386.067322,469.481079 386.721771,468.714325 
	C386.758942,467.809601 386.796143,466.904907 386.973297,465.116089 
	C387.169922,455.888519 384.551971,447.516022 379.393860,439.887939 
	C377.887543,437.660248 376.535400,435.328278 375.729797,432.769501 
	C380.897339,427.099487 384.832214,420.799530 385.973785,412.269409 
	C386.020172,411.527557 386.066528,410.785675 386.721771,409.714325 
	C386.758972,408.809601 386.796143,407.904907 386.973297,406.116089 
	C386.648132,402.858521 386.546204,399.560242 385.960785,396.350128 
	C382.729858,378.633179 366.764923,364.359039 349.102417,364.122375 
	C298.358337,363.442444 247.606781,363.284790 196.857559,363.051483 
	C189.095352,363.015808 181.332779,363.805817 173.565292,363.962158 
	C165.238266,364.129791 156.902847,363.872955 148.575500,364.032379 
	C138.319336,364.228699 127.911385,363.655945 117.848572,365.217285 
	C100.015770,367.984192 87.102448,383.945129 86.033470,401.873291 
	C85.295715,414.246307 88.955765,425.123413 98.214600,433.881958 
	C90.488976,442.502472 85.931465,452.112915 85.958992,463.694244 
	C85.986450,475.244110 90.777176,484.756714 98.179634,493.179749 
	C91.859962,499.685181 87.995750,506.969574 86.631187,515.689270 
	C84.480675,529.431152 88.033508,541.199829 98.172646,551.666870 
	C105.838837,558.877686 114.804298,562.993408 125.450302,562.994812 
	C199.237381,563.004639 273.024475,563.013062 346.811523,562.956543 
	C350.062012,562.954041 353.384094,562.634644 356.549988,561.919312 
	C371.296875,558.586792 384.546112,544.028992 385.976166,529.355530 
	C386.021759,528.918274 386.067352,528.481079 386.721802,527.714233 
	C386.758972,526.809509 386.796143,525.904785 386.973297,524.115967 
	C387.247070,516.665344 385.324036,509.730499 382.969849,503.018127 
	C410.940369,503.012054 438.910889,503.022003 466.881378,502.989746 
	C474.816559,502.980560 479.095337,498.959839 479.973572,490.072113 
	C479.982391,449.822784 479.979950,409.573425 480.003448,369.324097 
	C480.023743,334.564819 480.073517,299.805511 481.032959,265.007294 
	C500.014679,265.004822 518.996887,265.081635 537.977844,264.961884 
	C545.852539,264.912201 550.355347,261.377655 550.973877,253.269455 
	C551.020203,252.527603 551.066528,251.785736 551.721741,250.714355 
	C551.758972,249.809647 551.796204,248.904953 551.973328,247.158432 
	C552.019836,245.453583 552.066345,243.748734 552.721741,241.714355 
	C552.758972,240.809647 552.796143,239.904953 552.973328,238.158432 
	C553.019836,236.453583 553.066345,234.748734 553.721741,232.714355 
	C553.758911,231.809647 553.796143,230.904953 553.973328,229.158432 
	C554.019836,227.453583 554.066345,225.748734 554.721741,223.714355 
	C554.758972,222.809647 554.796204,221.904953 554.973328,220.158432 
	C555.019836,218.453583 555.066345,216.748734 555.721741,214.714355 
	C555.758972,213.809647 555.796143,212.904953 555.973328,211.158432 
	C556.019836,209.453583 556.066345,207.748734 556.721741,205.714355 
	C556.758911,204.809647 556.796143,203.904953 556.973328,202.158432 
	C557.019836,200.453583 557.066345,198.748734 557.721680,196.714355 
	C557.758911,195.809647 557.796143,194.904953 557.973389,193.158432 
	C558.019897,191.453583 558.066406,189.748734 558.721741,187.714355 
	C558.758972,186.809647 558.796143,185.904953 558.973328,184.158432 
	C559.019836,182.453583 559.066345,180.748734 559.721741,178.714355 
	C559.758911,177.809647 559.796143,176.904953 559.973328,175.158432 
	C560.019836,173.453583 560.066345,171.748734 560.721741,169.714355 
	C560.758972,168.809647 560.796204,167.904953 560.973267,166.158432 
	C561.019775,164.453583 561.066284,162.748734 561.721741,160.714355 
	C561.758972,159.809647 561.796143,158.904953 561.973328,157.158432 
	C562.019836,155.453583 562.066345,153.748734 562.721741,151.714355 
	C562.758911,150.809647 562.796143,149.904953 562.973267,148.147552 
	C563.039001,139.489365 561.008301,136.665955 552.581360,134.019287 
	C530.739868,127.159454 508.891785,120.320541 487.027344,113.534477 
	C484.710785,112.815491 482.278992,112.130638 479.882416,112.061302 
	C464.290070,111.610191 448.694061,111.191010 433.096558,111.038330 
	C415.936218,110.870346 398.770996,111.146873 381.612061,110.917000 
	C375.932495,110.840919 372.808624,113.816299 370.370758,118.207962 
	C368.173767,122.165604 366.418335,126.406380 363.904419,130.143021 
	C355.957581,141.955139 336.528656,148.854584 322.742035,145.352371 
	C307.539520,141.490494 297.297913,132.373856 291.805939,117.671494 
	C290.370148,113.827827 287.640289,110.956238 282.970337,110.996223 
	C274.643005,111.067528 266.315430,111.111351 257.480377,111.110825 
	C257.375824,111.399918 257.271240,111.689011 257.026520,112.907524 
	C257.073242,118.604889 257.119965,124.302254 257.027252,130.870880 
	C256.707611,133.019348 257.265503,134.132156 259.806274,134.051666 
	C264.518127,133.902405 269.240173,134.075897 274.011627,134.831512 
	C277.302948,139.568512 280.594269,144.305496 284.163391,149.656204 
	C285.756226,150.803207 287.349060,151.950211 288.971558,153.031219 
M193.500000,240.000000 
	C199.744965,246.246460 205.857269,252.634033 212.289993,258.680756 
	C215.583176,261.776337 215.711853,263.961029 212.400406,267.219086 
	C196.247803,283.111328 180.346954,299.259155 164.233597,315.191711 
	C159.125259,320.242676 160.759186,328.754913 165.597275,332.268463 
	C171.439346,336.510986 176.603683,335.860840 182.887497,329.600616 
	C198.351410,314.194824 213.762573,298.736053 229.201828,283.305450 
	C230.439484,282.068512 231.729828,280.884216 233.144028,279.533844 
	C250.282196,296.708038 266.860596,313.589111 283.840881,330.055817 
	C286.463928,332.599518 290.897186,334.380798 294.552826,334.488159 
	C299.621033,334.637054 303.031403,330.899780 304.562042,325.928650 
	C306.076691,321.009430 303.781250,317.300995 300.518799,314.027252 
	C286.874878,300.336212 273.199554,286.676392 259.513641,273.027283 
	C256.243744,269.766205 252.888947,266.590149 248.657089,262.486694 
	C250.735123,260.968750 252.380112,260.061554 253.660004,258.787537 
	C269.484375,243.035690 285.360474,227.333206 300.987091,211.386551 
	C306.960297,205.291000 305.806641,198.816208 301.593353,194.296555 
	C296.827454,189.184158 288.631287,190.566040 284.470520,194.854095 
	C268.807587,210.996048 252.722061,226.727402 236.897690,242.714371 
	C235.657623,243.967163 235.210632,246.004913 234.301147,247.870438 
	C215.534637,229.081543 198.593689,212.096619 181.604492,195.160126 
	C180.365295,193.924805 178.914856,192.697006 177.324692,192.055420 
	C171.999161,189.906723 165.795212,191.540833 163.196198,195.510391 
	C159.767487,200.747177 160.208298,206.580154 164.748383,211.197952 
	C174.093430,220.702911 183.574753,230.073898 193.500000,240.000000 
z"/>
<path fill="#007FD2" opacity="1.000000" stroke="none" 
	d="
M257.987976,111.166672 
	C266.315430,111.111351 274.643005,111.067528 282.970337,110.996223 
	C287.640289,110.956238 290.370148,113.827827 291.805939,117.671494 
	C297.297913,132.373856 307.539520,141.490494 322.742035,145.352371 
	C336.528656,148.854584 355.957581,141.955139 363.904419,130.143021 
	C366.418335,126.406380 368.173767,122.165604 370.370758,118.207962 
	C372.808624,113.816299 375.932495,110.840919 381.612061,110.917000 
	C398.770996,111.146873 415.936218,110.870346 433.096558,111.038330 
	C448.694061,111.191010 464.290070,111.610191 479.882416,112.061302 
	C482.278992,112.130638 484.710785,112.815491 487.027344,113.534477 
	C508.891785,120.320541 530.739868,127.159454 552.581360,134.019287 
	C561.008301,136.665955 563.039001,139.489365 562.653076,148.697998 
	C562.259521,150.180267 562.186157,151.112076 562.112793,152.043884 
	C562.066345,153.748734 562.019836,155.453583 561.653076,157.703445 
	C561.259521,159.180267 561.186218,160.112076 561.112793,161.043884 
	C561.066284,162.748734 561.019775,164.453583 560.653076,166.703445 
	C560.259521,168.180267 560.186218,169.112076 560.112854,170.043884 
	C560.066345,171.748734 560.019836,173.453583 559.653076,175.703445 
	C559.259521,177.180267 559.186157,178.112076 559.112854,179.043884 
	C559.066345,180.748734 559.019836,182.453583 558.653076,184.703445 
	C558.259521,186.180267 558.186157,187.112076 558.112915,188.043884 
	C558.066406,189.748734 558.019897,191.453583 557.653137,193.703445 
	C557.259583,195.180267 557.186218,196.112076 557.112854,197.043884 
	C557.066345,198.748734 557.019836,200.453583 556.653076,202.703445 
	C556.259521,204.180267 556.186218,205.112076 556.112854,206.043884 
	C556.066345,207.748734 556.019836,209.453583 555.653076,211.703445 
	C555.259521,213.180267 555.186218,214.112076 555.112854,215.043884 
	C555.066345,216.748734 555.019836,218.453583 554.653137,220.703445 
	C554.259583,222.180267 554.186218,223.112076 554.112915,224.043884 
	C554.066345,225.748734 554.019836,227.453583 553.653076,229.703445 
	C553.259521,231.180267 553.186157,232.112076 553.112854,233.043884 
	C553.066345,234.748734 553.019836,236.453583 552.653076,238.703445 
	C552.259583,240.180267 552.186218,241.112076 552.112854,242.043884 
	C552.066345,243.748734 552.019836,245.453583 551.653076,247.703445 
	C551.259583,249.180267 551.186218,250.112076 551.112854,251.043884 
	C551.066528,251.785736 551.020203,252.527603 550.603943,253.774918 
	C546.652710,260.533752 540.648132,261.026703 534.385254,261.009125 
	C522.626221,260.976135 510.867126,260.997955 499.108063,261.000824 
	C493.808258,261.002136 488.507202,260.947540 483.209167,261.047485 
	C480.705780,261.094666 478.127777,261.384033 480.110229,265.046234 
	C480.073517,299.805511 480.023743,334.564819 480.003448,369.324097 
	C479.979950,409.573425 479.982391,449.822784 479.616150,490.687439 
	C475.170624,497.039734 469.708771,499.389801 462.594940,499.094177 
	C453.322052,498.708832 444.021118,498.999695 434.732239,499.000061 
	C418.642578,499.000671 402.552948,499.004547 386.463287,498.999756 
	C383.695801,498.998932 380.720795,498.738922 382.042267,503.114685 
	C385.324036,509.730499 387.247070,516.665344 386.653046,524.682190 
	C386.259491,526.180237 386.186218,527.112000 386.112915,528.043823 
	C386.067352,528.481079 386.021759,528.918274 385.611450,529.839172 
	C384.760315,530.978638 384.111053,531.567871 383.811218,532.300110 
	C376.403412,550.391663 363.324951,559.202209 343.400024,559.118774 
	C271.346161,558.817017 199.290115,559.067871 127.235573,558.865479 
	C121.726746,558.849976 116.145607,557.217468 110.741653,555.792236 
	C106.344612,554.632385 102.162804,552.656494 97.885544,551.042480 
	C88.033508,541.199829 84.480675,529.431152 86.631187,515.689270 
	C87.995750,506.969574 91.859962,499.685181 98.179634,493.179749 
	C90.777176,484.756714 85.986450,475.244110 85.958992,463.694244 
	C85.931465,452.112915 90.488976,442.502472 98.214600,433.881958 
	C88.955765,425.123413 85.295715,414.246307 86.033470,401.873291 
	C87.102448,383.945129 100.015770,367.984192 117.848572,365.217285 
	C127.911385,363.655945 138.319336,364.228699 148.575500,364.032379 
	C156.902847,363.872955 165.238266,364.129791 173.565292,363.962158 
	C181.332779,363.805817 189.095352,363.015808 196.857559,363.051483 
	C247.606781,363.284790 298.358337,363.442444 349.102417,364.122375 
	C366.764923,364.359039 382.729858,378.633179 385.960785,396.350128 
	C386.546204,399.560242 386.648132,402.858521 386.653015,406.682251 
	C386.259491,408.180237 386.186188,409.112030 386.112885,410.043823 
	C386.066528,410.785675 386.020172,411.527557 385.613342,412.791809 
	C381.833344,418.525970 378.313751,423.677155 375.084656,429.004425 
	C374.490265,429.985046 375.073090,431.679291 375.112549,433.044128 
	C376.535400,435.328278 377.887543,437.660248 379.393860,439.887939 
	C384.551971,447.516022 387.169922,455.888519 386.653015,465.682251 
	C386.259491,467.180237 386.186188,468.112030 386.112915,469.043823 
	C386.067322,469.481079 386.021729,469.918335 385.619598,470.830841 
	C384.879669,473.218658 384.496277,475.131256 384.112915,477.043823 
	C384.940735,478.027893 385.762878,479.866028 386.597198,479.871582 
	C409.875366,480.026611 433.154785,479.996002 457.000000,479.996002 
	C457.000000,477.686737 457.000000,475.746429 457.000000,473.806122 
	C457.000000,392.872742 456.999847,311.939362 457.000214,231.005997 
	C457.000244,222.924805 460.059174,219.121002 466.650146,219.000183 
	C475.231415,218.842880 479.703583,222.841965 479.979675,231.051758 
	C480.096039,234.511002 479.999115,237.977417 479.999115,241.717773 
	C496.297394,241.717773 512.218689,241.717773 529.093872,241.717773 
	C532.375000,212.961670 535.683960,183.962173 538.965820,154.153046 
	C537.620483,151.897598 536.562500,149.663452 534.943420,149.128876 
	C519.927734,144.171341 504.830017,139.459183 489.722168,134.785446 
	C485.123932,133.362961 480.443542,131.313721 475.761261,131.201492 
	C447.983826,130.535690 420.195007,130.271545 392.409027,130.180725 
	C390.350708,130.173981 387.888641,132.218002 386.292267,133.937927 
	C380.230194,140.469162 375.540955,148.922333 368.358459,153.646942 
	C344.911102,169.070496 320.370758,169.391891 295.828247,155.287643 
	C293.772797,154.106430 291.224609,153.782608 288.905365,153.060455 
	C288.905365,153.060455 288.971558,153.031219 288.945618,152.675537 
	C288.806580,148.823654 286.274292,149.043365 283.885590,149.042496 
	C280.594269,144.305496 277.302948,139.568512 273.967102,134.070633 
	C272.436829,132.211517 271.037872,130.345001 269.448395,130.165497 
	C265.399872,129.708282 261.266235,130.004761 257.166687,129.999619 
	C257.119965,124.302254 257.073242,118.604889 257.243835,112.318344 
	C257.651337,111.555283 257.826935,111.367790 257.987976,111.166672 
M109.018570,460.901489 
	C107.873192,470.419464 115.787003,481.075989 125.915703,481.060516 
	C199.679214,480.947784 273.442963,481.018494 347.206604,480.966034 
	C353.428345,480.961609 358.025513,477.796021 361.104462,472.461670 
	C365.741547,464.427765 364.610107,457.763428 356.941772,448.354706 
	C355.992798,446.927277 355.335175,444.705780 354.037201,444.229462 
	C350.846527,443.058655 347.362183,442.093903 343.994171,442.088226 
	C274.552032,441.971191 205.109634,441.995544 135.667297,442.007172 
	C128.777588,442.008331 121.986382,441.380890 115.673317,445.890686 
	C111.430389,448.921600 107.958076,454.391266 109.018570,460.901489 
M109.018555,401.907196 
	C108.799858,408.067352 110.152634,413.473785 115.152306,417.770477 
	C119.381798,421.405304 124.155098,422.967987 129.516052,422.977356 
	C157.318695,423.025940 185.121490,423.000000 212.924225,423.000000 
	C256.542877,423.000000 300.161774,422.923157 343.780090,423.047607 
	C356.530975,423.083984 368.500061,410.603119 361.982117,397.516235 
	C361.063263,395.671295 359.970245,393.913116 358.935669,391.361389 
	C358.463684,390.354431 358.216614,389.127197 357.482178,388.377289 
	C353.567596,384.380310 348.860046,382.899994 343.151764,382.910889 
	C271.731567,383.047302 200.310989,382.999664 128.890503,383.004242 
	C127.393028,383.004333 125.887810,382.978058 124.399368,383.111237 
	C116.505646,383.817261 106.467125,393.161346 109.018555,401.907196 
M355.940826,506.348450 
	C354.364410,504.686584 353.075012,502.291687 351.143951,501.535583 
	C348.282806,500.415344 344.967072,500.065460 341.844116,500.062164 
	C271.213379,499.987610 200.582504,500.016113 129.951675,499.985107 
	C124.228806,499.982605 119.042763,501.677429 114.666367,505.139862 
	C110.318260,508.579865 107.960419,513.209229 109.018555,519.901489 
	C107.812386,530.053040 116.356438,540.305786 129.035172,540.184875 
	C177.177948,539.726013 225.327713,540.000000 273.474854,540.000000 
	C297.631714,540.000000 321.789337,539.891479 345.945099,540.055176 
	C355.144165,540.117493 366.927429,530.380310 362.868408,518.633667 
	C361.437469,514.492554 358.310455,510.937469 355.940826,506.348450 
z"/>
<path fill="#007FD2" opacity="1.000000" stroke="none" 
	d="
M193.250000,239.750000 
	C183.574753,230.073898 174.093430,220.702911 164.748383,211.197952 
	C160.208298,206.580154 159.767487,200.747177 163.196198,195.510391 
	C165.795212,191.540833 171.999161,189.906723 177.324692,192.055420 
	C178.914856,192.697006 180.365295,193.924805 181.604492,195.160126 
	C198.593689,212.096619 215.534637,229.081543 234.301147,247.870438 
	C235.210632,246.004913 235.657623,243.967163 236.897690,242.714371 
	C252.722061,226.727402 268.807587,210.996048 284.470520,194.854095 
	C288.631287,190.566040 296.827454,189.184158 301.593353,194.296555 
	C305.806641,198.816208 306.960297,205.291000 300.987091,211.386551 
	C285.360474,227.333206 269.484375,243.035690 253.660004,258.787537 
	C252.380112,260.061554 250.735123,260.968750 248.657089,262.486694 
	C252.888947,266.590149 256.243744,269.766205 259.513641,273.027283 
	C273.199554,286.676392 286.874878,300.336212 300.518799,314.027252 
	C303.781250,317.300995 306.076691,321.009430 304.562042,325.928650 
	C303.031403,330.899780 299.621033,334.637054 294.552826,334.488159 
	C290.897186,334.380798 286.463928,332.599518 283.840881,330.055817 
	C266.860596,313.589111 250.282196,296.708038 233.144028,279.533844 
	C231.729828,280.884216 230.439484,282.068512 229.201828,283.305450 
	C213.762573,298.736053 198.351410,314.194824 182.887497,329.600616 
	C176.603683,335.860840 171.439346,336.510986 165.597275,332.268463 
	C160.759186,328.754913 159.125259,320.242676 164.233597,315.191711 
	C180.346954,299.259155 196.247803,283.111328 212.400406,267.219086 
	C215.711853,263.961029 215.583176,261.776337 212.289993,258.680756 
	C205.857269,252.634033 199.744965,246.246460 193.250000,239.750000 
z"/>
<path fill="#007FD2" opacity="1.000000" stroke="none" 
	d="
M98.029091,551.354675 
	C102.162804,552.656494 106.344612,554.632385 110.741653,555.792236 
	C116.145607,557.217468 121.726746,558.849976 127.235573,558.865479 
	C199.290115,559.067871 271.346161,558.817017 343.400024,559.118774 
	C363.324951,559.202209 376.403412,550.391663 383.811218,532.300110 
	C384.111053,531.567871 384.760315,530.978638 385.540039,530.161438 
	C384.546112,544.028992 371.296875,558.586792 356.549988,561.919312 
	C353.384094,562.634644 350.062012,562.954041 346.811523,562.956543 
	C273.024475,563.013062 199.237381,563.004639 125.450302,562.994812 
	C114.804298,562.993408 105.838837,558.877686 98.029091,551.354675 
z"/>
<path fill="#007FD2" opacity="1.000000" stroke="none" 
	d="
M289.046387,153.371857 
	C291.224609,153.782608 293.772797,154.106430 295.828247,155.287643 
	C320.370758,169.391891 344.911102,169.070496 368.358459,153.646942 
	C375.540955,148.922333 380.230194,140.469162 386.292267,133.937927 
	C387.888641,132.218002 390.350708,130.173981 392.409027,130.180725 
	C420.195007,130.271545 447.983826,130.535690 475.761261,131.201492 
	C480.443542,131.313721 485.123932,133.362961 489.722168,134.785446 
	C504.830017,139.459183 519.927734,144.171341 534.943420,149.128876 
	C536.562500,149.663452 537.620483,151.897598 538.948364,153.729156 
	C518.963745,147.899994 498.974548,141.668884 478.964539,135.505402 
	C477.580627,135.079132 476.042480,135.032654 474.574432,135.021469 
	C468.077148,134.972000 461.578156,135.078278 455.081848,134.985504 
	C434.488739,134.691376 413.897064,134.276733 393.303192,134.100082 
	C391.521515,134.084808 388.888428,134.962067 388.066742,136.296539 
	C377.488892,153.475449 363.036682,164.825974 342.692932,168.144424 
	C323.757111,171.233200 306.619843,167.442551 291.307343,155.790451 
	C290.521362,155.192352 289.890503,154.390335 289.046387,153.371857 
z"/>
<path fill="#007FD2" opacity="1.000000" stroke="none" 
	d="
M382.506042,503.066406 
	C380.720795,498.738922 383.695801,498.998932 386.463287,498.999756 
	C402.552948,499.004547 418.642578,499.000671 434.732239,499.000061 
	C444.021118,498.999695 453.322052,498.708832 462.594940,499.094177 
	C469.708771,499.389801 475.170624,497.039734 479.546021,491.151459 
	C479.095337,498.959839 474.816559,502.980560 466.881378,502.989746 
	C438.910889,503.022003 410.940369,503.012054 382.506042,503.066406 
z"/>
<path fill="#007FD2" opacity="1.000000" stroke="none" 
	d="
M480.571594,265.026764 
	C478.127777,261.384033 480.705780,261.094666 483.209167,261.047485 
	C488.507202,260.947540 493.808258,261.002136 499.108063,261.000824 
	C510.867126,260.997955 522.626221,260.976135 534.385254,261.009125 
	C540.648132,261.026703 546.652710,260.533752 550.533691,254.140289 
	C550.355347,261.377655 545.852539,264.912201 537.977844,264.961884 
	C518.996887,265.081635 500.014679,265.004822 480.571594,265.026764 
z"/>
<path fill="#007FD2" opacity="1.000000" stroke="none" 
	d="
M257.096954,130.435242 
	C261.266235,130.004761 265.399872,129.708282 269.448395,130.165497 
	C271.037872,130.345001 272.436829,132.211517 273.940247,133.712372 
	C269.240173,134.075897 264.518127,133.902405 259.806274,134.051666 
	C257.265503,134.132156 256.707611,133.019348 257.096954,130.435242 
z"/>
<path fill="#007FD2" opacity="1.000000" stroke="none" 
	d="
M375.421173,432.906799 
	C375.073090,431.679291 374.490265,429.985046 375.084656,429.004425 
	C378.313751,423.677155 381.833344,418.525970 385.543121,413.157166 
	C384.832214,420.799530 380.897339,427.099487 375.421173,432.906799 
z"/>
<path fill="#007FD2" opacity="1.000000" stroke="none" 
	d="
M284.024475,149.349350 
	C286.274292,149.043365 288.806580,148.823654 288.930786,152.708542 
	C287.349060,151.950211 285.756226,150.803207 284.024475,149.349350 
z"/>
<path fill="#007FD2" opacity="1.000000" stroke="none" 
	d="
M384.431854,476.856995 
	C384.496277,475.131256 384.879669,473.218658 385.548218,471.153137 
	C385.472504,472.890167 385.111664,474.780151 384.431854,476.856995 
z"/>
<path fill="#007FD2" opacity="1.000000" stroke="none" 
	d="
M386.417358,527.879028 
	C386.186218,527.112000 386.259491,526.180237 386.583069,525.124268 
	C386.796143,525.904785 386.758972,526.809509 386.417358,527.879028 
z"/>
<path fill="#007FD2" opacity="1.000000" stroke="none" 
	d="
M386.417328,468.879089 
	C386.186188,468.112030 386.259491,467.180237 386.583069,466.124329 
	C386.796143,466.904907 386.758942,467.809601 386.417328,468.879089 
z"/>
<path fill="#007FD2" opacity="1.000000" stroke="none" 
	d="
M386.417328,409.879089 
	C386.186188,409.112030 386.259491,408.180237 386.583069,407.124329 
	C386.796143,407.904907 386.758972,408.809601 386.417328,409.879089 
z"/>
<path fill="#007FD2" opacity="1.000000" stroke="none" 
	d="
M552.417297,241.879120 
	C552.186218,241.112076 552.259583,240.180267 552.583130,239.124359 
	C552.796143,239.904953 552.758972,240.809647 552.417297,241.879120 
z"/>
<path fill="#007FD2" opacity="1.000000" stroke="none" 
	d="
M551.417297,250.879120 
	C551.186218,250.112076 551.259583,249.180267 551.583130,248.124359 
	C551.796204,248.904953 551.758972,249.809647 551.417297,250.879120 
z"/>
<path fill="#007FD2" opacity="1.000000" stroke="none" 
	d="
M553.417297,232.879120 
	C553.186157,232.112076 553.259521,231.180267 553.583130,230.124359 
	C553.796143,230.904953 553.758911,231.809647 553.417297,232.879120 
z"/>
<path fill="#007FD2" opacity="1.000000" stroke="none" 
	d="
M554.417358,223.879120 
	C554.186218,223.112076 554.259583,222.180267 554.583130,221.124359 
	C554.796204,221.904953 554.758972,222.809647 554.417358,223.879120 
z"/>
<path fill="#007FD2" opacity="1.000000" stroke="none" 
	d="
M555.417297,214.879120 
	C555.186218,214.112076 555.259521,213.180267 555.583130,212.124359 
	C555.796143,212.904953 555.758972,213.809647 555.417297,214.879120 
z"/>
<path fill="#007FD2" opacity="1.000000" stroke="none" 
	d="
M556.417297,205.879120 
	C556.186218,205.112076 556.259521,204.180267 556.583130,203.124359 
	C556.796143,203.904953 556.758911,204.809647 556.417297,205.879120 
z"/>
<path fill="#3C9AD4" opacity="1.000000" stroke="none" 
	d="
M557.417236,196.879120 
	C557.186218,196.112076 557.259583,195.180267 557.583130,194.124359 
	C557.796143,194.904953 557.758911,195.809647 557.417236,196.879120 
z"/>
<path fill="#3C9AD4" opacity="1.000000" stroke="none" 
	d="
M558.417297,187.879120 
	C558.186157,187.112076 558.259521,186.180267 558.583130,185.124359 
	C558.796143,185.904953 558.758972,186.809647 558.417297,187.879120 
z"/>
<path fill="#3C9AD4" opacity="1.000000" stroke="none" 
	d="
M559.417297,178.879120 
	C559.186157,178.112076 559.259521,177.180267 559.583130,176.124359 
	C559.796143,176.904953 559.758911,177.809647 559.417297,178.879120 
z"/>
<path fill="#3C9AD4" opacity="1.000000" stroke="none" 
	d="
M560.417297,169.879120 
	C560.186218,169.112076 560.259521,168.180267 560.583130,167.124359 
	C560.796204,167.904953 560.758972,168.809647 560.417297,169.879120 
z"/>
<path fill="#3C9AD4" opacity="1.000000" stroke="none" 
	d="
M561.417297,160.879120 
	C561.186218,160.112076 561.259521,159.180267 561.583130,158.124359 
	C561.796143,158.904953 561.758972,159.809647 561.417297,160.879120 
z"/>
<path fill="#3C9AD4" opacity="1.000000" stroke="none" 
	d="
M562.417236,151.879120 
	C562.186157,151.112076 562.259521,150.180267 562.583130,149.124359 
	C562.796143,149.904953 562.758911,150.809647 562.417236,151.879120 
z"/>
<path fill="#3C9AD4" opacity="1.000000" stroke="none" 
	d="
M257.734192,111.138748 
	C257.826935,111.367790 257.651337,111.555283 257.313904,111.853638 
	C257.271240,111.689011 257.375824,111.399918 257.734192,111.138748 
z"/>
<path fill="#000000" opacity="1.000000" stroke="none" 
	d="
M355.957855,507.114807 
	C358.310455,510.937469 361.437469,514.492554 362.868408,518.633667 
	C366.927429,530.380310 355.144165,540.117493 345.945099,540.055176 
	C321.789337,539.891479 297.631714,540.000000 273.474854,540.000000 
	C225.327713,540.000000 177.177948,539.726013 129.035172,540.184875 
	C116.356438,540.305786 107.812386,530.053040 109.381546,519.291199 
	C112.131805,509.304840 118.931862,504.035980 130.794800,504.026611 
	C199.613220,503.972168 268.431915,503.919922 337.249695,504.135498 
	C343.488800,504.155029 349.721954,506.076569 355.957855,507.114807 
z"/>
<path fill="#000000" opacity="1.000000" stroke="none" 
	d="
M358.957855,392.114807 
	C359.970245,393.913116 361.063263,395.671295 361.982117,397.516235 
	C368.500061,410.603119 356.530975,423.083984 343.780090,423.047607 
	C300.161774,422.923157 256.542877,423.000000 212.924225,423.000000 
	C185.121490,423.000000 157.318695,423.025940 129.516052,422.977356 
	C124.155098,422.967987 119.381798,421.405304 115.152306,417.770477 
	C110.152634,413.473785 108.799858,408.067352 109.380844,401.295197 
	C112.138733,392.095459 118.787376,387.005157 127.707878,387.004181 
	C196.674133,386.996613 265.640381,387.011749 334.606628,386.984985 
	C343.105682,386.981689 351.767090,385.999756 358.957855,392.114807 
z"/>
<path fill="#000000" opacity="1.000000" stroke="none" 
	d="
M356.957855,449.114807 
	C364.610107,457.763428 365.741547,464.427765 361.104462,472.461670 
	C358.025513,477.796021 353.428345,480.961609 347.206604,480.966034 
	C273.442963,481.018494 199.679214,480.947784 125.915703,481.060516 
	C115.787003,481.075989 107.873192,470.419464 109.381599,460.291138 
	C110.846886,451.730011 120.295990,445.841980 127.630989,445.865540 
	C197.694901,446.090576 267.759827,446.020020 337.824432,445.967346 
	C344.412170,445.962372 350.992065,445.545715 356.957855,449.114807 
z"/>
<path fill="#3C9AD4" opacity="1.000000" stroke="none" 
	d="
M358.946777,391.738098 
	C351.767090,385.999756 343.105682,386.981689 334.606628,386.984985 
	C265.640381,387.011749 196.674133,386.996613 127.707878,387.004181 
	C118.787376,387.005157 112.138733,392.095459 109.429543,400.862183 
	C106.467125,393.161346 116.505646,383.817261 124.399368,383.111237 
	C125.887810,382.978058 127.393028,383.004333 128.890503,383.004242 
	C200.310989,382.999664 271.731567,383.047302 343.151764,382.910889 
	C348.860046,382.899994 353.567596,384.380310 357.482178,388.377289 
	C358.216614,389.127197 358.463684,390.354431 358.946777,391.738098 
z"/>
<path fill="#3C9AD4" opacity="1.000000" stroke="none" 
	d="
M355.949341,506.731628 
	C349.721954,506.076569 343.488800,504.155029 337.249695,504.135498 
	C268.431915,503.919922 199.613220,503.972168 130.794800,504.026611 
	C118.931862,504.035980 112.131805,509.304840 109.430222,518.861084 
	C107.960419,513.209229 110.318260,508.579865 114.666367,505.139862 
	C119.042763,501.677429 124.228806,499.982605 129.951675,499.985107 
	C200.582504,500.016113 271.213379,499.987610 341.844116,500.062164 
	C344.967072,500.065460 348.282806,500.415344 351.143951,501.535583 
	C353.075012,502.291687 354.364410,504.686584 355.949341,506.731628 
z"/>
<path fill="#3C9AD4" opacity="1.000000" stroke="none" 
	d="
M356.949829,448.734741 
	C350.992065,445.545715 344.412170,445.962372 337.824432,445.967346 
	C267.759827,446.020020 197.694901,446.090576 127.630989,445.865540 
	C120.295990,445.841980 110.846886,451.730011 109.430283,459.860962 
	C107.958076,454.391266 111.430389,448.921600 115.673317,445.890686 
	C121.986382,441.380890 128.777588,442.008331 135.667297,442.007172 
	C205.109634,441.995544 274.552032,441.971191 343.994171,442.088226 
	C347.362183,442.093903 350.846527,443.058655 354.037201,444.229462 
	C355.335175,444.705780 355.992798,446.927277 356.949829,448.734741 
z"/>
</svg>