<svg version="1.1" id="Layer_1" xmlns="http://www.w3.org/2000/svg" xmlns:xlink="http://www.w3.org/1999/xlink" x="0px" y="0px"
	 width="100%" viewBox="0 0 3761 1569" enable-background="new 0 0 3761 1569" xml:space="preserve">
<path fill="#000000" opacity="0.000000" stroke="none" 
	d="
M2646.000000,1572.000000 
	C1764.000000,1572.000000 883.000000,1572.000000 2.000000,1572.000000 
	C2.000000,1048.666626 2.000000,525.333313 2.000000,2.000000 
	C1256.000000,2.000000 2510.000000,2.000000 3764.000000,2.000000 
	C3764.000000,525.333313 3764.000000,1048.666626 3764.000000,1572.000000 
	C3391.666748,1572.000000 3019.333252,1572.000000 2646.000000,1572.000000 
M1856.324341,918.999878 
	C1856.324341,960.996948 1856.318848,1002.994019 1856.326050,1044.991089 
	C1856.333252,1087.171753 1856.293213,1129.353149 1856.352295,1171.394897 
	C1883.849731,1173.625000 2287.832520,1172.559570 2295.052002,1170.397217 
	C2295.052002,1037.187622 2295.052002,904.014160 2295.052002,770.449341 
	C2212.903076,770.449341 2131.377930,770.449341 2049.291992,770.449341 
	C2039.390991,799.740417 2029.566772,828.803772 2019.214478,859.429626 
	C2084.581299,859.429626 2148.043213,859.429626 2211.739014,859.429626 
	C2211.739014,935.032715 2211.739014,1009.529602 2211.739014,1083.928101 
	C2197.520752,1086.274048 1951.882446,1085.474243 1943.978149,1082.782593 
	C1943.978149,927.392029 1943.978149,771.622253 1943.978149,615.671326 
	C1914.338379,615.671326 1885.805786,615.671326 1856.324341,615.671326 
	C1856.324341,716.515381 1856.324341,816.757568 1856.324341,918.999878 
M935.000000,398.013031 
	C856.445251,398.013031 777.890564,398.013031 699.027954,398.013031 
	C699.027954,429.871307 699.027954,460.634888 699.027954,492.199249 
	C826.256653,492.199249 952.784363,492.199249 1080.462769,492.199249 
	C1080.462769,719.090515 1080.462769,945.178467 1080.462769,1171.311523 
	C1115.399414,1171.311523 1149.181274,1171.311523 1183.167480,1171.311523 
	C1183.167480,913.433167 1183.167480,656.268066 1183.167480,398.013031 
	C1100.775879,398.013031 1018.887939,398.013031 935.000000,398.013031 
M799.670715,629.000122 
	C799.670715,593.419922 799.670715,557.839783 799.670715,521.782837 
	C765.257568,521.782837 731.817688,521.782837 697.463867,521.782837 
	C697.463867,708.012695 697.463867,893.535217 697.463867,1080.157959 
	C612.768921,1080.157959 528.982544,1080.157959 445.354126,1080.157959 
	C443.428680,1094.611938 443.954468,1164.584351 445.862000,1171.459717 
	C647.755981,1171.459717 849.625977,1171.459717 1051.616943,1171.459717 
	C1051.616943,1140.803467 1051.616943,1110.713989 1051.616943,1079.718994 
	C967.401550,1079.718994 883.902405,1079.718994 799.670715,1079.718994 
	C799.670715,929.538147 799.670715,780.269165 799.670715,629.000122 
M1746.338257,1033.000122 
	C1746.338257,989.342163 1746.338745,945.684265 1746.338013,902.026306 
	C1746.337280,858.205322 1746.335449,814.384277 1746.334106,770.578003 
	C1716.324707,770.578003 1687.816162,770.578003 1658.094360,770.578003 
	C1658.094360,875.564636 1658.094360,979.997437 1658.094360,1084.291504 
	C1639.972778,1086.183716 1401.946411,1085.410278 1393.572021,1083.337158 
	C1393.572021,979.410461 1393.572021,875.249756 1393.572021,770.644226 
	C1363.882324,770.644226 1335.120483,770.644226 1306.429077,770.644226 
	C1304.515625,788.343689 1305.289185,1164.355469 1307.162598,1171.408447 
	C1453.328735,1171.408447 1599.472046,1171.408447 1746.338257,1171.408447 
	C1746.338257,1125.533081 1746.338257,1080.266724 1746.338257,1033.000122 
M2749.929688,957.134888 
	C2755.261475,963.287781 2760.593506,969.440613 2765.888184,975.550659 
	C2749.130615,994.210571 2732.947998,1012.266541 2716.723877,1030.285400 
	C2701.378174,1047.328857 2685.898926,1064.253296 2670.677246,1081.406494 
	C2666.399658,1086.227051 2661.806396,1088.641968 2655.124023,1088.156128 
	C2646.837646,1087.553589 2638.474365,1088.011841 2630.144287,1088.011841 
	C2621.230469,1088.011841 2612.316895,1088.011719 2603.052979,1088.011719 
	C2603.052979,1117.384277 2603.052979,1145.763184 2603.052979,1174.304199 
	C2605.028320,1174.619995 2606.317139,1175.004028 2607.606445,1175.006226 
	C2635.928711,1175.053467 2664.251953,1174.926880 2692.571777,1175.192505 
	C2697.662109,1175.240112 2700.595459,1172.702148 2703.524170,1169.430054 
	C2711.725342,1160.267212 2719.895996,1151.077148 2728.118652,1141.933838 
	C2751.890869,1115.500122 2775.653809,1089.057861 2799.484375,1062.677002 
	C2807.005859,1054.350342 2814.729492,1046.206177 2822.542480,1037.782104 
	C2839.556152,1056.627930 2856.026367,1074.870483 2872.494873,1093.114746 
	C2895.435547,1118.528564 2918.403076,1143.918213 2941.285156,1169.385010 
	C2944.799805,1173.296753 2948.526123,1175.300659 2954.156982,1175.227295 
	C2980.142578,1174.888794 3006.134766,1175.097656 3032.124756,1175.050659 
	C3035.041504,1175.045410 3037.957764,1174.663086 3040.718994,1174.466675 
	C3042.604248,1160.763062 3042.030029,1095.268555 3039.938721,1088.011719 
	C3024.429932,1088.011719 3008.723389,1087.192017 2993.156006,1088.307373 
	C2983.199463,1089.020630 2976.755615,1085.230347 2971.128906,1078.129272 
	C2970.922607,1077.868652 2970.682861,1077.634399 2970.459961,1077.386841 
	C2949.789795,1054.416016 2929.115234,1031.449097 2908.451416,1008.472351 
	C2898.699707,997.629089 2888.968994,986.767212 2878.989014,975.646729 
	C2881.383545,972.665649 2883.312744,970.004333 2885.501709,967.577393 
	C2916.217529,933.521423 2946.998047,899.523987 2977.668213,865.427124 
	C2980.975830,861.749939 2984.364746,859.754700 2989.629150,859.892944 
	C3004.280273,860.277588 3018.947998,860.063354 3033.608643,859.988586 
	C3036.127197,859.975708 3038.642822,859.485046 3041.030273,859.228943 
	C3041.030273,830.334778 3041.030273,802.201477 3041.030273,774.115356 
	C3039.468994,773.686890 3038.520508,773.201050 3037.571045,773.198730 
	C3009.582520,773.129700 2981.593750,773.156372 2953.605713,773.028442 
	C2949.463623,773.009521 2947.008301,775.043945 2944.420654,777.953674 
	C2930.283936,793.852051 2915.920898,809.548645 2901.678955,825.353760 
	C2881.442871,847.810364 2861.283936,870.336243 2841.006592,892.755554 
	C2834.878662,899.531250 2828.468018,906.051758 2822.151611,912.726624 
	C2811.788086,901.423889 2802.306396,891.198059 2792.950439,880.858154 
	C2761.957031,846.603882 2730.896729,812.408508 2700.202637,777.887634 
	C2696.825928,774.090088 2693.651855,773.006165 2689.105957,773.021851 
	C2662.783203,773.112793 2636.459961,773.038574 2610.136963,773.115601 
	C2607.652344,773.122864 2605.169922,773.790283 2603.048096,774.098633 
	C2603.048096,803.140137 2603.048096,831.299622 2603.048096,860.026001 
	C2607.074463,860.026001 2610.376709,860.025940 2613.678955,860.026001 
	C2627.673584,860.026245 2641.668213,860.078064 2655.662354,859.992798 
	C2659.436279,859.969849 2662.654053,860.318604 2665.450684,863.554626 
	C2675.011963,874.618530 2684.806641,885.483215 2694.627441,896.319824 
	C2712.709717,916.273071 2730.873779,936.152466 2749.929688,957.134888 
M3148.218994,539.263062 
	C3133.141602,548.572632 3121.992920,561.646240 3112.880371,576.567200 
	C3108.367188,583.957336 3109.197510,587.766846 3116.043213,592.644104 
	C3124.168213,598.432556 3132.400635,604.074951 3140.692871,609.622131 
	C3146.742188,613.669006 3150.724121,612.967224 3155.330566,607.296082 
	C3157.003174,605.237488 3158.372803,602.933899 3160.027344,600.859009 
	C3170.436768,587.804199 3182.573975,577.132751 3199.810547,574.661804 
	C3225.799805,570.935852 3250.293701,586.788391 3248.433594,615.727600 
	C3247.680420,627.447815 3242.730469,637.052795 3234.851562,644.879639 
	C3226.164062,653.509827 3216.690918,661.450867 3206.956299,668.903992 
	C3187.703369,683.645081 3167.366699,697.033691 3148.686523,712.446350 
	C3116.519775,738.986511 3102.963867,773.565674 3108.232910,815.209656 
	C3109.631592,826.263000 3111.521729,828.017029 3122.678467,828.019958 
	C3176.311768,828.034180 3229.944824,828.026550 3283.578125,828.026062 
	C3292.239502,828.026001 3300.903809,828.166870 3309.561035,827.976807 
	C3316.761475,827.818726 3319.507324,825.481995 3319.574707,818.537659 
	C3319.794678,795.887329 3319.801270,773.232178 3319.588379,750.581726 
	C3319.515625,742.868713 3316.330566,740.162292 3308.320557,740.044983 
	C3298.995117,739.908325 3289.665771,739.972839 3280.338623,740.021973 
	C3269.209717,740.080627 3266.485107,742.836731 3266.341309,754.289368 
	C3266.246094,761.865173 3266.323242,769.443176 3266.323242,777.312866 
	C3233.704346,777.312866 3202.047119,777.312866 3169.838379,777.312866 
	C3171.487793,769.499634 3174.822266,763.304016 3179.812988,758.454590 
	C3188.113770,750.389282 3196.559082,742.329346 3205.790283,735.394165 
	C3226.254639,720.019897 3247.852295,706.109131 3267.862305,690.187073 
	C3291.671875,671.242065 3307.259277,646.844910 3308.117676,615.367065 
	C3309.050537,581.154846 3296.265137,552.956116 3265.952393,535.992798 
	C3227.197754,514.305237 3187.794189,515.690308 3148.218994,539.263062 
M2482.468262,770.009583 
	C2457.296143,770.009583 2432.124268,770.009583 2406.848633,770.009583 
	C2406.848633,904.667664 2406.848633,1037.834351 2406.848633,1171.454468 
	C2434.496826,1171.454468 2461.612061,1171.454468 2489.682861,1171.454468 
	C2489.682861,1167.645874 2489.682617,1164.391479 2489.682617,1161.137207 
	C2489.682617,1034.489746 2489.683594,907.842285 2489.676758,781.194824 
	C2489.676514,778.530701 2489.691162,775.859741 2489.515381,773.204163 
	C2489.293945,769.860657 2486.670166,770.131714 2482.468262,770.009583 
M2441.005615,615.039612 
	C2429.764893,615.039612 2418.524170,615.039612 2406.812012,615.039612 
	C2406.812012,644.703918 2406.812012,673.175354 2406.812012,702.376526 
	C2423.461914,702.376526 2439.906006,702.376526 2456.822754,702.376526 
	C2467.665771,673.595947 2478.934814,645.175964 2489.378906,615.039734 
	C2472.844238,615.039734 2457.923828,615.039734 2441.005615,615.039612 
z"/>
<path fill="#05A0F6" opacity="1.000000" stroke="none" 
	d="
M1856.324341,917.999878 
	C1856.324341,816.757568 1856.324341,716.515381 1856.324341,615.671326 
	C1885.805786,615.671326 1914.338379,615.671326 1943.978149,615.671326 
	C1943.978149,771.622253 1943.978149,927.392029 1943.978149,1082.782593 
	C1951.882446,1085.474243 2197.520752,1086.274048 2211.739014,1083.928101 
	C2211.739014,1009.529602 2211.739014,935.032715 2211.739014,859.429626 
	C2148.043213,859.429626 2084.581299,859.429626 2019.214478,859.429626 
	C2029.566772,828.803772 2039.390991,799.740417 2049.291992,770.449341 
	C2131.377930,770.449341 2212.903076,770.449341 2295.052002,770.449341 
	C2295.052002,904.014160 2295.052002,1037.187622 2295.052002,1170.397217 
	C2287.832520,1172.559570 1883.849731,1173.625000 1856.352295,1171.394897 
	C1856.293213,1129.353149 1856.333252,1087.171753 1856.326050,1044.991089 
	C1856.318848,1002.994019 1856.324341,960.996948 1856.324341,917.999878 
z"/>
<path fill="#05A0F6" opacity="1.000000" stroke="none" 
	d="
M936.000000,398.013031 
	C1018.887939,398.013031 1100.775879,398.013031 1183.167480,398.013031 
	C1183.167480,656.268066 1183.167480,913.433167 1183.167480,1171.311523 
	C1149.181274,1171.311523 1115.399414,1171.311523 1080.462769,1171.311523 
	C1080.462769,945.178467 1080.462769,719.090515 1080.462769,492.199249 
	C952.784363,492.199249 826.256653,492.199249 699.027954,492.199249 
	C699.027954,460.634888 699.027954,429.871307 699.027954,398.013031 
	C777.890564,398.013031 856.445251,398.013031 936.000000,398.013031 
z"/>
<path fill="#05A0F6" opacity="1.000000" stroke="none" 
	d="
M799.670715,630.000122 
	C799.670715,780.269165 799.670715,929.538147 799.670715,1079.718994 
	C883.902405,1079.718994 967.401550,1079.718994 1051.616943,1079.718994 
	C1051.616943,1110.713989 1051.616943,1140.803467 1051.616943,1171.459717 
	C849.625977,1171.459717 647.755981,1171.459717 445.862000,1171.459717 
	C443.954468,1164.584351 443.428680,1094.611938 445.354126,1080.157959 
	C528.982544,1080.157959 612.768921,1080.157959 697.463867,1080.157959 
	C697.463867,893.535217 697.463867,708.012695 697.463867,521.782837 
	C731.817688,521.782837 765.257568,521.782837 799.670715,521.782837 
	C799.670715,557.839783 799.670715,593.419922 799.670715,630.000122 
z"/>
<path fill="#05A0F6" opacity="1.000000" stroke="none" 
	d="
M1746.338257,1034.000244 
	C1746.338257,1080.266724 1746.338257,1125.533081 1746.338257,1171.408447 
	C1599.472046,1171.408447 1453.328735,1171.408447 1307.162598,1171.408447 
	C1305.289185,1164.355469 1304.515625,788.343689 1306.429077,770.644226 
	C1335.120483,770.644226 1363.882324,770.644226 1393.572021,770.644226 
	C1393.572021,875.249756 1393.572021,979.410461 1393.572021,1083.337158 
	C1401.946411,1085.410278 1639.972778,1086.183716 1658.094360,1084.291504 
	C1658.094360,979.997437 1658.094360,875.564636 1658.094360,770.578003 
	C1687.816162,770.578003 1716.324707,770.578003 1746.334106,770.578003 
	C1746.335449,814.384277 1746.337280,858.205322 1746.338013,902.026306 
	C1746.338745,945.684265 1746.338257,989.342163 1746.338257,1034.000244 
z"/>
<path fill="#05A0F6" opacity="1.000000" stroke="none" 
	d="
M2749.466797,956.598755 
	C2730.873779,936.152466 2712.709717,916.273071 2694.627441,896.319824 
	C2684.806641,885.483215 2675.011963,874.618530 2665.450684,863.554626 
	C2662.654053,860.318604 2659.436279,859.969849 2655.662354,859.992798 
	C2641.668213,860.078064 2627.673584,860.026245 2613.678955,860.026001 
	C2610.376709,860.025940 2607.074463,860.026001 2603.048096,860.026001 
	C2603.048096,831.299622 2603.048096,803.140137 2603.048096,774.098633 
	C2605.169922,773.790283 2607.652344,773.122864 2610.136963,773.115601 
	C2636.459961,773.038574 2662.783203,773.112793 2689.105957,773.021851 
	C2693.651855,773.006165 2696.825928,774.090088 2700.202637,777.887634 
	C2730.896729,812.408508 2761.957031,846.603882 2792.950439,880.858154 
	C2802.306396,891.198059 2811.788086,901.423889 2822.151611,912.726624 
	C2828.468018,906.051758 2834.878662,899.531250 2841.006592,892.755554 
	C2861.283936,870.336243 2881.442871,847.810364 2901.678955,825.353760 
	C2915.920898,809.548645 2930.283936,793.852051 2944.420654,777.953674 
	C2947.008301,775.043945 2949.463623,773.009521 2953.605713,773.028442 
	C2981.593750,773.156372 3009.582520,773.129700 3037.571045,773.198730 
	C3038.520508,773.201050 3039.468994,773.686890 3041.030273,774.115356 
	C3041.030273,802.201477 3041.030273,830.334778 3041.030273,859.228943 
	C3038.642822,859.485046 3036.127197,859.975708 3033.608643,859.988586 
	C3018.947998,860.063354 3004.280273,860.277588 2989.629150,859.892944 
	C2984.364746,859.754700 2980.975830,861.749939 2977.668213,865.427124 
	C2946.998047,899.523987 2916.217529,933.521423 2885.501709,967.577393 
	C2883.312744,970.004333 2881.383545,972.665649 2878.989014,975.646729 
	C2888.968994,986.767212 2898.699707,997.629089 2908.451416,1008.472351 
	C2929.115234,1031.449097 2949.789795,1054.416016 2970.459961,1077.386841 
	C2970.682861,1077.634399 2970.922607,1077.868652 2971.128906,1078.129272 
	C2976.755615,1085.230347 2983.199463,1089.020630 2993.156006,1088.307373 
	C3008.723389,1087.192017 3024.429932,1088.011719 3039.938721,1088.011719 
	C3042.030029,1095.268555 3042.604248,1160.763062 3040.718994,1174.466675 
	C3037.957764,1174.663086 3035.041504,1175.045410 3032.124756,1175.050659 
	C3006.134766,1175.097656 2980.142578,1174.888794 2954.156982,1175.227295 
	C2948.526123,1175.300659 2944.799805,1173.296753 2941.285156,1169.385010 
	C2918.403076,1143.918213 2895.435547,1118.528564 2872.494873,1093.114746 
	C2856.026367,1074.870483 2839.556152,1056.627930 2822.542480,1037.782104 
	C2814.729492,1046.206177 2807.005859,1054.350342 2799.484375,1062.677002 
	C2775.653809,1089.057861 2751.890869,1115.500122 2728.118652,1141.933838 
	C2719.895996,1151.077148 2711.725342,1160.267212 2703.524170,1169.430054 
	C2700.595459,1172.702148 2697.662109,1175.240112 2692.571777,1175.192505 
	C2664.251953,1174.926880 2635.928711,1175.053467 2607.606445,1175.006226 
	C2606.317139,1175.004028 2605.028320,1174.619995 2603.052979,1174.304199 
	C2603.052979,1145.763184 2603.052979,1117.384277 2603.052979,1088.011719 
	C2612.316895,1088.011719 2621.230469,1088.011841 2630.144287,1088.011841 
	C2638.474365,1088.011841 2646.837646,1087.553589 2655.124023,1088.156128 
	C2661.806396,1088.641968 2666.399658,1086.227051 2670.677246,1081.406494 
	C2685.898926,1064.253296 2701.378174,1047.328857 2716.723877,1030.285400 
	C2732.947998,1012.266541 2749.130615,994.210571 2765.888184,975.550659 
	C2760.593506,969.440613 2755.261475,963.287781 2749.466797,956.598755 
z"/>
<path fill="#05A0F6" opacity="1.000000" stroke="none" 
	d="
M3148.806641,538.838928 
	C3187.794189,515.690308 3227.197754,514.305237 3265.952393,535.992798 
	C3296.265137,552.956116 3309.050537,581.154846 3308.117676,615.367065 
	C3307.259277,646.844910 3291.671875,671.242065 3267.862305,690.187073 
	C3247.852295,706.109131 3226.254639,720.019897 3205.790283,735.394165 
	C3196.559082,742.329346 3188.113770,750.389282 3179.812988,758.454590 
	C3174.822266,763.304016 3171.487793,769.499634 3169.838379,777.312866 
	C3202.047119,777.312866 3233.704346,777.312866 3266.323242,777.312866 
	C3266.323242,769.443176 3266.246094,761.865173 3266.341309,754.289368 
	C3266.485107,742.836731 3269.209717,740.080627 3280.338623,740.021973 
	C3289.665771,739.972839 3298.995117,739.908325 3308.320557,740.044983 
	C3316.330566,740.162292 3319.515625,742.868713 3319.588379,750.581726 
	C3319.801270,773.232178 3319.794678,795.887329 3319.574707,818.537659 
	C3319.507324,825.481995 3316.761475,827.818726 3309.561035,827.976807 
	C3300.903809,828.166870 3292.239502,828.026001 3283.578125,828.026062 
	C3229.944824,828.026550 3176.311768,828.034180 3122.678467,828.019958 
	C3111.521729,828.017029 3109.631592,826.263000 3108.232910,815.209656 
	C3102.963867,773.565674 3116.519775,738.986511 3148.686523,712.446350 
	C3167.366699,697.033691 3187.703369,683.645081 3206.956299,668.903992 
	C3216.690918,661.450867 3226.164062,653.509827 3234.851562,644.879639 
	C3242.730469,637.052795 3247.680420,627.447815 3248.433594,615.727600 
	C3250.293701,586.788391 3225.799805,570.935852 3199.810547,574.661804 
	C3182.573975,577.132751 3170.436768,587.804199 3160.027344,600.859009 
	C3158.372803,602.933899 3157.003174,605.237488 3155.330566,607.296082 
	C3150.724121,612.967224 3146.742188,613.669006 3140.692871,609.622131 
	C3132.400635,604.074951 3124.168213,598.432556 3116.043213,592.644104 
	C3109.197510,587.766846 3108.367188,583.957336 3112.880371,576.567200 
	C3121.992920,561.646240 3133.141602,548.572632 3148.806641,538.838928 
z"/>
<path fill="#05A0F6" opacity="1.000000" stroke="none" 
	d="
M2483.414307,770.014404 
	C2486.670166,770.131714 2489.293945,769.860657 2489.515381,773.204163 
	C2489.691162,775.859741 2489.676514,778.530701 2489.676758,781.194824 
	C2489.683594,907.842285 2489.682617,1034.489746 2489.682617,1161.137207 
	C2489.682617,1164.391479 2489.682861,1167.645874 2489.682861,1171.454468 
	C2461.612061,1171.454468 2434.496826,1171.454468 2406.848633,1171.454468 
	C2406.848633,1037.834351 2406.848633,904.667664 2406.848633,770.009583 
	C2432.124268,770.009583 2457.296143,770.009583 2483.414307,770.014404 
z"/>
<path fill="#05A0F6" opacity="1.000000" stroke="none" 
	d="
M2442.004395,615.039673 
	C2457.923828,615.039734 2472.844238,615.039734 2489.378906,615.039734 
	C2478.934814,645.175964 2467.665771,673.595947 2456.822754,702.376526 
	C2439.906006,702.376526 2423.461914,702.376526 2406.812012,702.376526 
	C2406.812012,673.175354 2406.812012,644.703918 2406.812012,615.039612 
	C2418.524170,615.039612 2429.764893,615.039612 2442.004395,615.039673 
z"/>
</svg>