<?xml version="1.0" standalone="no"?>
<!DOCTYPE svg PUBLIC "-//W3C//DTD SVG 20010904//EN"
 "http://www.w3.org/TR/2001/REC-SVG-20010904/DTD/svg10.dtd">
<svg version="1.0" xmlns="http://www.w3.org/2000/svg"
 width="232.000000pt" height="232.000000pt" viewBox="0 0 232.000000 232.000000"
 preserveAspectRatio="xMidYMid meet">
<metadata>
Created by potrace 1.14, written by Peter Selinger 2001-2017
</metadata>
<g transform="translate(0.000000,232.000000) scale(0.100000,-0.100000)"
fill="#000000" stroke="none">
<path d="M844 2205 c-8 -7 -12 -44 -11 -125 l2 -115 45 -2 c63 -3 78 -3 139
-3 29 0 58 -3 62 -6 5 -3 9 -2 9 3 0 9 752 9 767 0 7 -5 10 -311 9 -912 0
-498 2 -905 6 -905 4 0 5 -6 2 -13 -4 -11 20 -14 126 -14 75 -1 130 3 130 9 0
5 4 7 8 4 11 -7 9 2046 -2 2063 -7 11 -6 12 5 6 12 -8 12 -6 0 8 -15 19 -36
23 -25 5 5 -7 3 -8 -7 -3 -19 12 -132 12 -141 0 -5 -7 -8 -7 -8 0 0 11 -200
12 -218 1 -7 -4 -12 -4 -12 1 0 10 -452 9 -468 -1 -7 -4 -12 -4 -12 1 0 4 -23
8 -50 8 -28 0 -50 -3 -50 -7 0 -4 -6 -5 -12 -3 -26 10 -281 10 -294 0z"/>
<path d="M967 1883 c-4 -3 -35 -5 -70 -4 -60 1 -65 -1 -69 -21 -2 -13 -3 -355
-3 -761 l1 -738 -26 2 c-14 0 -27 0 -30 -1 -18 -6 -100 -4 -100 3 0 5 -5 5
-11 2 -12 -8 -217 -10 -225 -3 -3 3 -19 3 -37 -1 -36 -8 -84 -7 -93 1 -3 4
-18 3 -32 -1 -15 -3 -50 -6 -79 -5 -49 1 -51 0 -55 -27 -3 -16 -1 -29 3 -29 4
0 3 -15 -2 -32 -6 -22 -6 -34 1 -36 6 -2 7 -8 4 -14 -11 -18 -10 -82 2 -94 12
-14 1636 -16 1628 -2 -3 4 -1 8 4 8 5 0 9 49 9 110 0 119 1 117 -59 119 -10 1
-24 1 -30 1 -7 1 -35 1 -63 0 -27 0 -57 0 -65 1 -8 0 -32 -1 -53 -3 -21 -3
-40 -1 -43 4 -3 5 -10 6 -15 2 -12 -7 -347 -10 -353 -3 -6 6 -7 117 -6 882 0
340 -2 623 -6 628 -3 5 -27 9 -53 8 -26 -1 -53 1 -58 4 -6 4 -13 4 -16 0z"/>
</g>
</svg>
